<?xml version="1.0" encoding="utf-8"?>
<!-- Generator: Adobe Illustrator 16.0.0, SVG Export Plug-In . SVG Version: 6.00 Build 0)  -->
<!DOCTYPE svg PUBLIC "-//W3C//DTD SVG 1.1//EN" "http://www.w3.org/Graphics/SVG/1.1/DTD/svg11.dtd">
<svg version="1.1" id="Layer_1" xmlns="http://www.w3.org/2000/svg" xmlns:xlink="http://www.w3.org/1999/xlink" x="0px" y="0px"
	 width="271.132px" height="37.008px" viewBox="0 0 271.132 37.008" enable-background="new 0 0 271.132 37.008"
	 xml:space="preserve">
<g>
	<g>
		<path fill="#016945" d="M181.563,29.425v3.54h26.813c0.351,0,0.672-0.129,0.979-0.385c0.299-0.252,0.453-0.641,0.453-1.145v-2.011
			H181.563z"/>
		<path fill="#016945" d="M198.12,5.895c0,3.427,1.459,6.234,3.485,8.456c1.945,2.095,4.794,3.748,8.54,4.972l-2.156,2.781
			c-3.057-1.021-5.563-2.182-7.523-3.469c-2.049-1.353-3.678-2.945-4.877-4.773c-1.111,1.828-2.693,3.42-4.74,4.773
			c-1.966,1.288-4.496,2.449-7.594,3.469l-1.932-2.781c3.572-1.224,6.335-2.893,8.278-5.007c2.423-2.638,3.636-6.04,3.636-10.207
			h3.026C196.264,4.108,198.12,3.979,198.12,5.895z"/>
	</g>
	<g>
		<path fill="#016945" d="M161.835,31.555h-3.318v-1.666h19.886v-8.381h-24.842v3.385h19.886v1.602h-19.886v5.125
			c0,1.064,0.384,1.884,1.142,2.462c0.777,0.595,1.906,0.895,3.381,0.895h3.752h10.01h5.326c0.358,0,0.693-0.134,1-0.394
			c0.311-0.262,0.463-0.658,0.463-1.178v-1.854h-16.799V31.555z"/>
		<path fill="#016945" d="M173.468,20.453h2.659c0.667,0,1.189-0.187,1.56-0.571c0.367-0.377,0.552-0.894,0.552-1.54V3.855h-4.771
			V20.453z"/>
		<path fill="#016945" d="M166.646,3.855v8.093h-2.073l-0.007-0.054c-0.263-0.611-0.611-1.156-1.051-1.631
			c-0.403-0.45-0.885-0.817-1.414-1.128h1.496c0.342,0,0.66-0.124,0.955-0.37c0.297-0.25,0.441-0.625,0.441-1.126v-1.95h-4.637V3.31
			h-4.834v2.378h-4.633v3.446h2.982c-1.162,0.679-1.997,1.622-2.494,2.854c-0.5,1.25-0.575,2.523-0.227,3.834
			c0.328,1.22,1.037,2.21,2.123,2.976c1.246,0.894,2.803,1.345,4.685,1.345c1.872,0,3.43-0.451,4.677-1.345
			c1.105-0.766,1.852-1.756,2.223-2.976l0.064-0.36l-0.004-0.038h1.727v5.028h2.66c0.667,0,1.189-0.187,1.555-0.571
			c0.369-0.377,0.557-0.894,0.557-1.54V3.855H166.646z M159.724,15.56c-0.439,0.588-1.031,0.885-1.765,0.885
			c-0.724,0-1.292-0.297-1.704-0.885c-0.328-0.505-0.494-1.088-0.494-1.765c0-0.702,0.166-1.301,0.494-1.807
			c0.412-0.562,0.98-0.845,1.704-0.845c0.733,0,1.325,0.283,1.765,0.845c0.368,0.506,0.553,1.105,0.553,1.807
			C160.276,14.472,160.092,15.055,159.724,15.56z"/>
	</g>
	<g>
		<g>
			<path fill="#016945" d="M235.022,3.846v31.471h2.657c0.728,0,1.287-0.207,1.683-0.629c0.402-0.419,0.602-0.988,0.602-1.702V3.846
				H235.022z"/>
			<path fill="#016945" d="M227.888,18.844v16.473h2.666c0.721,0,1.278-0.207,1.681-0.629c0.4-0.419,0.597-0.988,0.597-1.702V3.846
				h-4.943v11.501V18.844z"/>
		</g>
		<path fill="#016945" d="M228.568,18.372h-3.708c-0.568,3.795-1.81,6.896-3.731,9.291c-1.655,2.074-4.054,3.865-7.198,5.365
			l-2.156-2.614c2.377-1.442,4.209-3.034,5.496-4.776c1.506-2.053,2.419-4.508,2.746-7.364h-5.852v-3.469h6.18l0.068-1.798V8.001
			h-6.873V4.497h11.714v8.378c0,0.33-0.01,0.644-0.03,0.948c-0.025,0.333-0.049,0.648-0.068,0.953h3.413"/>
	</g>
	<g>
		<path fill="#016945" d="M266.017,35.308h2.758c0.744,0,1.329-0.21,1.736-0.639c0.412-0.427,0.621-0.997,0.621-1.726V3.855h-5.115
			V35.308z"/>
		<path fill="#016945" d="M259.733,8.9c-1.704-1.882-3.909-2.828-6.617-2.828c-3.151,0-5.607,1.241-7.367,3.706
			c-1.62,2.283-2.428,5.228-2.428,8.835c0,3.731,0.808,6.763,2.428,9.085c1.76,2.508,4.216,3.764,7.367,3.764
			c3.087,0,5.498-1.207,7.235-3.621c1.62-2.23,2.472-5.164,2.556-8.804l-0.213-3.062C262.313,13.018,261.325,10.661,259.733,8.9z
			 M255.899,25.687c-0.682,1.89-1.609,2.833-2.783,2.833c-1.236,0-2.18-0.943-2.824-2.833c-0.615-1.772-0.929-4.132-0.929-7.074
			c0-2.818,0.313-5.078,0.929-6.796c0.645-1.868,1.588-2.797,2.824-2.797c1.174,0,2.102,0.929,2.783,2.797
			c0.61,1.718,0.922,3.978,0.922,6.796C256.821,21.555,256.51,23.915,255.899,25.687z"/>
		<rect x="261.595" y="16.7" fill="#016945" width="4.906" height="4.22"/>
	</g>
	<path fill="#016945" d="M141.599,35.095h-12.513v-1.109l0.147-0.068c0.768-0.358,2.818-1.322,3.09-1.479
		c0.293-0.176,0.501-0.421,0.637-0.754c0.093-0.24,0.206-0.801,0.206-2.113V9.481c0-1.4-0.115-1.995-0.21-2.25
		c-0.131-0.344-0.339-0.59-0.627-0.749c-0.269-0.147-2.317-1.009-3.085-1.33l-0.157-0.065V3.841h12.513v1.241l-0.15,0.068
		c-1.064,0.473-2.743,1.234-2.996,1.402c-0.316,0.211-0.543,0.506-0.695,0.908c-0.154,0.405-0.232,1.246-0.232,2.491v19.62
		c0,0.982,0.088,1.676,0.254,2.064c0.161,0.382,0.374,0.648,0.654,0.813c0.261,0.156,2.27,1.114,3.021,1.47l0.146,0.068V35.095z"/>
	<path fill="#016945" d="M130.324,33.557c0,0-1.463-1.114-2.603-3.874l-5.37-12.674l-5.569-13.205h-1.276
		c0,0-1.901-0.014-2.65,1.676l-10.862,25.126c0,0-1.081,2.137-1.94,2.801c0,0-0.672,0.73-1.482,0.822c0,0-0.278,0.047-0.508,0.052
		h-0.368v0.794h10.853v-0.794c0,0-0.728-0.044-1.566-0.396c0,0-1.84-0.564-0.988-2.856l2.591-6.054h12.082l1.721,4.111
		c0,0,0.979,2.031,0.885,3.193c0,0-0.012,1.385-1.042,1.713c0,0-0.625,0.295-1.454,0.288v0.814h11.48V34.37
		C132.258,34.37,131.345,34.229,130.324,33.557z M109.736,22.295l4.963-11.572l4.848,11.572H109.736z"/>
	<path fill="#016945" d="M104.291,33.557c0,0-1.47-1.114-2.608-3.874l-5.368-12.674L90.746,3.804H89.47c0,0-1.905-0.014-2.647,1.676
		L75.963,30.606c0,0-1.084,2.137-1.945,2.801c0,0-0.667,0.73-1.482,0.822c0,0-0.276,0.047-0.503,0.052h-0.375v0.794h10.855v-0.794
		c0,0-0.73-0.044-1.564-0.396c0,0-1.84-0.564-0.99-2.856l2.589-6.054h12.084l1.723,4.111c0,0,0.976,2.031,0.883,3.193
		c0,0-0.012,1.385-1.046,1.713c0,0-0.618,0.295-1.452,0.288v0.814h11.48V34.37C106.22,34.37,105.312,34.229,104.291,33.557z
		 M83.702,22.295l4.96-11.572l4.846,11.572H83.702z"/>
	<polygon fill="#8AB53F" points="52.226,0 41.055,0 52.594,37.008 64.06,37.008 	"/>
	<polygon fill="#E46E26" points="25.823,0 37.654,37.008 48.762,37.008 36.931,0 	"/>
	<polygon fill="#C22025" points="25.823,0 25.76,0 23.004,0 14.649,0 11.831,0 0,37.008 11.468,37.008 18.827,13.401 26.186,37.008
		37.296,37.008 37.654,37.008 	"/>
</g>
</svg>
